<svg xmlns="http://www.w3.org/2000/svg" width="840" height="232" viewBox="0 0 840 232" role="img" aria-label="3,076 contributions in the last year, 266 active days, 20-day longest streak">
<title>3,076 contributions in the last year, 266 active days, 20-day longest streak</title>
<style>
  text { font-family: -apple-system, BlinkMacSystemFont, 'Segoe UI', 'Noto Sans', Helvetica, Arial, sans-serif; }
  .mono { font-family: ui-monospace, SFMono-Regular, 'SF Mono', Menlo, Consolas, 'Liberation Mono', monospace; }
  
  @keyframes up { from { opacity: 0; transform: translateY(6px); } to { opacity: 1; transform: none; } }
  @keyframes fade { from { opacity: 0; } to { opacity: 1; } }
  .up { animation: up .7s cubic-bezier(.2,.8,.2,1) both; }
  .fade { animation: fade .8s ease-out both; }
  @media (prefers-reduced-motion: reduce) { * { animation: none !important; } }

  
</style>

  <rect x="0.5" y="0.5" width="839" height="231" rx="16" fill="#f7f9fc" stroke="#d8dfe8"/>
  <g class="up">
    <text x="51" y="46"><tspan font-size="24" font-weight="700" letter-spacing="-0.5" fill="#0f172a">3,076</tspan><tspan font-size="14" fill="#475569" dx="8">contributions in the last year</tspan></text>
    <text x="790" y="46" font-size="13" text-anchor="end" fill="#475569"><tspan fill="#0f172a" font-weight="600">266</tspan> active days  ·  <tspan fill="#0f172a" font-weight="600">20</tspan>-day longest streak</text>
  </g>
  <text class="mono" x="51" y="82" font-size="10.5" fill="#475569">Oct</text>
  <text class="mono" x="107" y="82" font-size="10.5" fill="#475569">Nov</text>
  <text class="mono" x="177" y="82" font-size="10.5" fill="#475569">Dec</text>
  <text class="mono" x="233" y="82" font-size="10.5" fill="#475569">Jan</text>
  <text class="mono" x="303" y="82" font-size="10.5" fill="#475569">Feb</text>
  <text class="mono" x="359" y="82" font-size="10.5" fill="#475569">Mar</text>
  <text class="mono" x="415" y="82" font-size="10.5" fill="#475569">Apr</text>
  <text class="mono" x="471" y="82" font-size="10.5" fill="#475569">May</text>
  <text class="mono" x="541" y="82" font-size="10.5" fill="#475569">Jun</text>
  <text class="mono" x="597" y="82" font-size="10.5" fill="#475569">Jul</text>
  <text class="mono" x="653" y="82" font-size="10.5" fill="#475569">Aug</text>
  <text class="mono" x="723" y="82" font-size="10.5" fill="#475569">Sep</text>
  <g class="fade" style="animation-delay:0.000s"><rect x="51" y="92" width="11" height="11" rx="2.5" fill="#e9edf3"/><rect x="51" y="106" width="11" height="11" rx="2.5" fill="#8badf4"/><rect x="51" y="120" width="11" height="11" rx="2.5" fill="#8badf4"/><rect x="51" y="134" width="11" height="11" rx="2.5" fill="#8badf4"/><rect x="51" y="148" width="11" height="11" rx="2.5" fill="#c6d6fb"/><rect x="51" y="162" width="11" height="11" rx="2.5" fill="#c6d6fb"/><rect x="51" y="176" width="11" height="11" rx="2.5" fill="#c6d6fb"/></g>
  <g class="fade" style="animation-delay:0.014s"><rect x="65" y="92" width="11" height="11" rx="2.5" fill="#e9edf3"/><rect x="65" y="106" width="11" height="11" rx="2.5" fill="#c6d6fb"/><rect x="65" y="120" width="11" height="11" rx="2.5" fill="#c6d6fb"/><rect x="65" y="134" width="11" height="11" rx="2.5" fill="#8badf4"/><rect x="65" y="148" width="11" height="11" rx="2.5" fill="#c6d6fb"/><rect x="65" y="162" width="11" height="11" rx="2.5" fill="#c6d6fb"/><rect x="65" y="176" width="11" height="11" rx="2.5" fill="#c6d6fb"/></g>
  <g class="fade" style="animation-delay:0.028s"><rect x="79" y="92" width="11" height="11" rx="2.5" fill="#e9edf3"/><rect x="79" y="106" width="11" height="11" rx="2.5" fill="#c6d6fb"/><rect x="79" y="120" width="11" height="11" rx="2.5" fill="#c6d6fb"/><rect x="79" y="134" width="11" height="11" rx="2.5" fill="#8badf4"/><rect x="79" y="148" width="11" height="11" rx="2.5" fill="#8badf4"/><rect x="79" y="162" width="11" height="11" rx="2.5" fill="#c6d6fb"/><rect x="79" y="176" width="11" height="11" rx="2.5" fill="#e9edf3"/></g>
  <g class="fade" style="animation-delay:0.042s"><rect x="93" y="92" width="11" height="11" rx="2.5" fill="#e9edf3"/><rect x="93" y="106" width="11" height="11" rx="2.5" fill="#c6d6fb"/><rect x="93" y="120" width="11" height="11" rx="2.5" fill="#8badf4"/><rect x="93" y="134" width="11" height="11" rx="2.5" fill="#c6d6fb"/><rect x="93" y="148" width="11" height="11" rx="2.5" fill="#c6d6fb"/><rect x="93" y="162" width="11" height="11" rx="2.5" fill="#8badf4"/><rect x="93" y="176" width="11" height="11" rx="2.5" fill="#e9edf3"/></g>
  <g class="fade" style="animation-delay:0.056s"><rect x="107" y="92" width="11" height="11" rx="2.5" fill="#e9edf3"/><rect x="107" y="106" width="11" height="11" rx="2.5" fill="#e9edf3"/><rect x="107" y="120" width="11" height="11" rx="2.5" fill="#c6d6fb"/><rect x="107" y="134" width="11" height="11" rx="2.5" fill="#c6d6fb"/><rect x="107" y="148" width="11" height="11" rx="2.5" fill="#c6d6fb"/><rect x="107" y="162" width="11" height="11" rx="2.5" fill="#8badf4"/><rect x="107" y="176" width="11" height="11" rx="2.5" fill="#c6d6fb"/></g>
  <g class="fade" style="animation-delay:0.070s"><rect x="121" y="92" width="11" height="11" rx="2.5" fill="#e9edf3"/><rect x="121" y="106" width="11" height="11" rx="2.5" fill="#8badf4"/><rect x="121" y="120" width="11" height="11" rx="2.5" fill="#8badf4"/><rect x="121" y="134" width="11" height="11" rx="2.5" fill="#c6d6fb"/><rect x="121" y="148" width="11" height="11" rx="2.5" fill="#4a7ff0"/><rect x="121" y="162" width="11" height="11" rx="2.5" fill="#c6d6fb"/><rect x="121" y="176" width="11" height="11" rx="2.5" fill="#c6d6fb"/></g>
  <g class="fade" style="animation-delay:0.084s"><rect x="135" y="92" width="11" height="11" rx="2.5" fill="#e9edf3"/><rect x="135" y="106" width="11" height="11" rx="2.5" fill="#8badf4"/><rect x="135" y="120" width="11" height="11" rx="2.5" fill="#c6d6fb"/><rect x="135" y="134" width="11" height="11" rx="2.5" fill="#8badf4"/><rect x="135" y="148" width="11" height="11" rx="2.5" fill="#c6d6fb"/><rect x="135" y="162" width="11" height="11" rx="2.5" fill="#c6d6fb"/><rect x="135" y="176" width="11" height="11" rx="2.5" fill="#e9edf3"/></g>
  <g class="fade" style="animation-delay:0.098s"><rect x="149" y="92" width="11" height="11" rx="2.5" fill="#e9edf3"/><rect x="149" y="106" width="11" height="11" rx="2.5" fill="#8badf4"/><rect x="149" y="120" width="11" height="11" rx="2.5" fill="#c6d6fb"/><rect x="149" y="134" width="11" height="11" rx="2.5" fill="#e9edf3"/><rect x="149" y="148" width="11" height="11" rx="2.5" fill="#c6d6fb"/><rect x="149" y="162" width="11" height="11" rx="2.5" fill="#e9edf3"/><rect x="149" y="176" width="11" height="11" rx="2.5" fill="#c6d6fb"/></g>
  <g class="fade" style="animation-delay:0.112s"><rect x="163" y="92" width="11" height="11" rx="2.5" fill="#e9edf3"/><rect x="163" y="106" width="11" height="11" rx="2.5" fill="#c6d6fb"/><rect x="163" y="120" width="11" height="11" rx="2.5" fill="#8badf4"/><rect x="163" y="134" width="11" height="11" rx="2.5" fill="#c6d6fb"/><rect x="163" y="148" width="11" height="11" rx="2.5" fill="#c6d6fb"/><rect x="163" y="162" width="11" height="11" rx="2.5" fill="#8badf4"/><rect x="163" y="176" width="11" height="11" rx="2.5" fill="#c6d6fb"/></g>
  <g class="fade" style="animation-delay:0.126s"><rect x="177" y="92" width="11" height="11" rx="2.5" fill="#e9edf3"/><rect x="177" y="106" width="11" height="11" rx="2.5" fill="#8badf4"/><rect x="177" y="120" width="11" height="11" rx="2.5" fill="#c6d6fb"/><rect x="177" y="134" width="11" height="11" rx="2.5" fill="#8badf4"/><rect x="177" y="148" width="11" height="11" rx="2.5" fill="#c6d6fb"/><rect x="177" y="162" width="11" height="11" rx="2.5" fill="#e9edf3"/><rect x="177" y="176" width="11" height="11" rx="2.5" fill="#e9edf3"/></g>
  <g class="fade" style="animation-delay:0.140s"><rect x="191" y="92" width="11" height="11" rx="2.5" fill="#e9edf3"/><rect x="191" y="106" width="11" height="11" rx="2.5" fill="#c6d6fb"/><rect x="191" y="120" width="11" height="11" rx="2.5" fill="#c6d6fb"/><rect x="191" y="134" width="11" height="11" rx="2.5" fill="#8badf4"/><rect x="191" y="148" width="11" height="11" rx="2.5" fill="#8badf4"/><rect x="191" y="162" width="11" height="11" rx="2.5" fill="#c6d6fb"/><rect x="191" y="176" width="11" height="11" rx="2.5" fill="#e9edf3"/></g>
  <g class="fade" style="animation-delay:0.154s"><rect x="205" y="92" width="11" height="11" rx="2.5" fill="#e9edf3"/><rect x="205" y="106" width="11" height="11" rx="2.5" fill="#c6d6fb"/><rect x="205" y="120" width="11" height="11" rx="2.5" fill="#c6d6fb"/><rect x="205" y="134" width="11" height="11" rx="2.5" fill="#c6d6fb"/><rect x="205" y="148" width="11" height="11" rx="2.5" fill="#c6d6fb"/><rect x="205" y="162" width="11" height="11" rx="2.5" fill="#e9edf3"/><rect x="205" y="176" width="11" height="11" rx="2.5" fill="#e9edf3"/></g>
  <g class="fade" style="animation-delay:0.168s"><rect x="219" y="92" width="11" height="11" rx="2.5" fill="#e9edf3"/><rect x="219" y="106" width="11" height="11" rx="2.5" fill="#c6d6fb"/><rect x="219" y="120" width="11" height="11" rx="2.5" fill="#c6d6fb"/><rect x="219" y="134" width="11" height="11" rx="2.5" fill="#8badf4"/><rect x="219" y="148" width="11" height="11" rx="2.5" fill="#c6d6fb"/><rect x="219" y="162" width="11" height="11" rx="2.5" fill="#e9edf3"/><rect x="219" y="176" width="11" height="11" rx="2.5" fill="#e9edf3"/></g>
  <g class="fade" style="animation-delay:0.182s"><rect x="233" y="92" width="11" height="11" rx="2.5" fill="#e9edf3"/><rect x="233" y="106" width="11" height="11" rx="2.5" fill="#c6d6fb"/><rect x="233" y="120" width="11" height="11" rx="2.5" fill="#c6d6fb"/><rect x="233" y="134" width="11" height="11" rx="2.5" fill="#c6d6fb"/><rect x="233" y="148" width="11" height="11" rx="2.5" fill="#c6d6fb"/><rect x="233" y="162" width="11" height="11" rx="2.5" fill="#c6d6fb"/><rect x="233" y="176" width="11" height="11" rx="2.5" fill="#c6d6fb"/></g>
  <g class="fade" style="animation-delay:0.196s"><rect x="247" y="92" width="11" height="11" rx="2.5" fill="#e9edf3"/><rect x="247" y="106" width="11" height="11" rx="2.5" fill="#c6d6fb"/><rect x="247" y="120" width="11" height="11" rx="2.5" fill="#8badf4"/><rect x="247" y="134" width="11" height="11" rx="2.5" fill="#e9edf3"/><rect x="247" y="148" width="11" height="11" rx="2.5" fill="#c6d6fb"/><rect x="247" y="162" width="11" height="11" rx="2.5" fill="#c6d6fb"/><rect x="247" y="176" width="11" height="11" rx="2.5" fill="#c6d6fb"/></g>
  <g class="fade" style="animation-delay:0.210s"><rect x="261" y="92" width="11" height="11" rx="2.5" fill="#e9edf3"/><rect x="261" y="106" width="11" height="11" rx="2.5" fill="#8badf4"/><rect x="261" y="120" width="11" height="11" rx="2.5" fill="#c6d6fb"/><rect x="261" y="134" width="11" height="11" rx="2.5" fill="#e9edf3"/><rect x="261" y="148" width="11" height="11" rx="2.5" fill="#c6d6fb"/><rect x="261" y="162" width="11" height="11" rx="2.5" fill="#8badf4"/><rect x="261" y="176" width="11" height="11" rx="2.5" fill="#e9edf3"/></g>
  <g class="fade" style="animation-delay:0.224s"><rect x="275" y="92" width="11" height="11" rx="2.5" fill="#c6d6fb"/><rect x="275" y="106" width="11" height="11" rx="2.5" fill="#8badf4"/><rect x="275" y="120" width="11" height="11" rx="2.5" fill="#8badf4"/><rect x="275" y="134" width="11" height="11" rx="2.5" fill="#c6d6fb"/><rect x="275" y="148" width="11" height="11" rx="2.5" fill="#c6d6fb"/><rect x="275" y="162" width="11" height="11" rx="2.5" fill="#c6d6fb"/><rect x="275" y="176" width="11" height="11" rx="2.5" fill="#e9edf3"/></g>
  <g class="fade" style="animation-delay:0.238s"><rect x="289" y="92" width="11" height="11" rx="2.5" fill="#e9edf3"/><rect x="289" y="106" width="11" height="11" rx="2.5" fill="#8badf4"/><rect x="289" y="120" width="11" height="11" rx="2.5" fill="#c6d6fb"/><rect x="289" y="134" width="11" height="11" rx="2.5" fill="#e9edf3"/><rect x="289" y="148" width="11" height="11" rx="2.5" fill="#e9edf3"/><rect x="289" y="162" width="11" height="11" rx="2.5" fill="#c6d6fb"/><rect x="289" y="176" width="11" height="11" rx="2.5" fill="#8badf4"/></g>
  <g class="fade" style="animation-delay:0.252s"><rect x="303" y="92" width="11" height="11" rx="2.5" fill="#e9edf3"/><rect x="303" y="106" width="11" height="11" rx="2.5" fill="#c6d6fb"/><rect x="303" y="120" width="11" height="11" rx="2.5" fill="#8badf4"/><rect x="303" y="134" width="11" height="11" rx="2.5" fill="#c6d6fb"/><rect x="303" y="148" width="11" height="11" rx="2.5" fill="#c6d6fb"/><rect x="303" y="162" width="11" height="11" rx="2.5" fill="#4a7ff0"/><rect x="303" y="176" width="11" height="11" rx="2.5" fill="#e9edf3"/></g>
  <g class="fade" style="animation-delay:0.266s"><rect x="317" y="92" width="11" height="11" rx="2.5" fill="#8badf4"/><rect x="317" y="106" width="11" height="11" rx="2.5" fill="#8badf4"/><rect x="317" y="120" width="11" height="11" rx="2.5" fill="#8badf4"/><rect x="317" y="134" width="11" height="11" rx="2.5" fill="#8badf4"/><rect x="317" y="148" width="11" height="11" rx="2.5" fill="#8badf4"/><rect x="317" y="162" width="11" height="11" rx="2.5" fill="#1d4ed8"/><rect x="317" y="176" width="11" height="11" rx="2.5" fill="#c6d6fb"/></g>
  <g class="fade" style="animation-delay:0.280s"><rect x="331" y="92" width="11" height="11" rx="2.5" fill="#c6d6fb"/><rect x="331" y="106" width="11" height="11" rx="2.5" fill="#4a7ff0"/><rect x="331" y="120" width="11" height="11" rx="2.5" fill="#1d4ed8"/><rect x="331" y="134" width="11" height="11" rx="2.5" fill="#8badf4"/><rect x="331" y="148" width="11" height="11" rx="2.5" fill="#8badf4"/><rect x="331" y="162" width="11" height="11" rx="2.5" fill="#4a7ff0"/><rect x="331" y="176" width="11" height="11" rx="2.5" fill="#e9edf3"/></g>
  <g class="fade" style="animation-delay:0.294s"><rect x="345" y="92" width="11" height="11" rx="2.5" fill="#c6d6fb"/><rect x="345" y="106" width="11" height="11" rx="2.5" fill="#8badf4"/><rect x="345" y="120" width="11" height="11" rx="2.5" fill="#8badf4"/><rect x="345" y="134" width="11" height="11" rx="2.5" fill="#8badf4"/><rect x="345" y="148" width="11" height="11" rx="2.5" fill="#8badf4"/><rect x="345" y="162" width="11" height="11" rx="2.5" fill="#8badf4"/><rect x="345" y="176" width="11" height="11" rx="2.5" fill="#4a7ff0"/></g>
  <g class="fade" style="animation-delay:0.308s"><rect x="359" y="92" width="11" height="11" rx="2.5" fill="#e9edf3"/><rect x="359" y="106" width="11" height="11" rx="2.5" fill="#c6d6fb"/><rect x="359" y="120" width="11" height="11" rx="2.5" fill="#4a7ff0"/><rect x="359" y="134" width="11" height="11" rx="2.5" fill="#8badf4"/><rect x="359" y="148" width="11" height="11" rx="2.5" fill="#8badf4"/><rect x="359" y="162" width="11" height="11" rx="2.5" fill="#8badf4"/><rect x="359" y="176" width="11" height="11" rx="2.5" fill="#4a7ff0"/></g>
  <g class="fade" style="animation-delay:0.322s"><rect x="373" y="92" width="11" height="11" rx="2.5" fill="#c6d6fb"/><rect x="373" y="106" width="11" height="11" rx="2.5" fill="#c6d6fb"/><rect x="373" y="120" width="11" height="11" rx="2.5" fill="#c6d6fb"/><rect x="373" y="134" width="11" height="11" rx="2.5" fill="#8badf4"/><rect x="373" y="148" width="11" height="11" rx="2.5" fill="#8badf4"/><rect x="373" y="162" width="11" height="11" rx="2.5" fill="#c6d6fb"/><rect x="373" y="176" width="11" height="11" rx="2.5" fill="#8badf4"/></g>
  <g class="fade" style="animation-delay:0.336s"><rect x="387" y="92" width="11" height="11" rx="2.5" fill="#e9edf3"/><rect x="387" y="106" width="11" height="11" rx="2.5" fill="#8badf4"/><rect x="387" y="120" width="11" height="11" rx="2.5" fill="#c6d6fb"/><rect x="387" y="134" width="11" height="11" rx="2.5" fill="#4a7ff0"/><rect x="387" y="148" width="11" height="11" rx="2.5" fill="#8badf4"/><rect x="387" y="162" width="11" height="11" rx="2.5" fill="#4a7ff0"/><rect x="387" y="176" width="11" height="11" rx="2.5" fill="#4a7ff0"/></g>
  <g class="fade" style="animation-delay:0.350s"><rect x="401" y="92" width="11" height="11" rx="2.5" fill="#e9edf3"/><rect x="401" y="106" width="11" height="11" rx="2.5" fill="#c6d6fb"/><rect x="401" y="120" width="11" height="11" rx="2.5" fill="#c6d6fb"/><rect x="401" y="134" width="11" height="11" rx="2.5" fill="#c6d6fb"/><rect x="401" y="148" width="11" height="11" rx="2.5" fill="#8badf4"/><rect x="401" y="162" width="11" height="11" rx="2.5" fill="#4a7ff0"/><rect x="401" y="176" width="11" height="11" rx="2.5" fill="#c6d6fb"/></g>
  <g class="fade" style="animation-delay:0.364s"><rect x="415" y="92" width="11" height="11" rx="2.5" fill="#e9edf3"/><rect x="415" y="106" width="11" height="11" rx="2.5" fill="#e9edf3"/><rect x="415" y="120" width="11" height="11" rx="2.5" fill="#e9edf3"/><rect x="415" y="134" width="11" height="11" rx="2.5" fill="#e9edf3"/><rect x="415" y="148" width="11" height="11" rx="2.5" fill="#e9edf3"/><rect x="415" y="162" width="11" height="11" rx="2.5" fill="#e9edf3"/><rect x="415" y="176" width="11" height="11" rx="2.5" fill="#c6d6fb"/></g>
  <g class="fade" style="animation-delay:0.378s"><rect x="429" y="92" width="11" height="11" rx="2.5" fill="#e9edf3"/><rect x="429" y="106" width="11" height="11" rx="2.5" fill="#c6d6fb"/><rect x="429" y="120" width="11" height="11" rx="2.5" fill="#c6d6fb"/><rect x="429" y="134" width="11" height="11" rx="2.5" fill="#1d4ed8"/><rect x="429" y="148" width="11" height="11" rx="2.5" fill="#e9edf3"/><rect x="429" y="162" width="11" height="11" rx="2.5" fill="#8badf4"/><rect x="429" y="176" width="11" height="11" rx="2.5" fill="#e9edf3"/></g>
  <g class="fade" style="animation-delay:0.392s"><rect x="443" y="92" width="11" height="11" rx="2.5" fill="#e9edf3"/><rect x="443" y="106" width="11" height="11" rx="2.5" fill="#8badf4"/><rect x="443" y="120" width="11" height="11" rx="2.5" fill="#c6d6fb"/><rect x="443" y="134" width="11" height="11" rx="2.5" fill="#4a7ff0"/><rect x="443" y="148" width="11" height="11" rx="2.5" fill="#8badf4"/><rect x="443" y="162" width="11" height="11" rx="2.5" fill="#1d4ed8"/><rect x="443" y="176" width="11" height="11" rx="2.5" fill="#c6d6fb"/></g>
  <g class="fade" style="animation-delay:0.406s"><rect x="457" y="92" width="11" height="11" rx="2.5" fill="#e9edf3"/><rect x="457" y="106" width="11" height="11" rx="2.5" fill="#8badf4"/><rect x="457" y="120" width="11" height="11" rx="2.5" fill="#c6d6fb"/><rect x="457" y="134" width="11" height="11" rx="2.5" fill="#c6d6fb"/><rect x="457" y="148" width="11" height="11" rx="2.5" fill="#4a7ff0"/><rect x="457" y="162" width="11" height="11" rx="2.5" fill="#c6d6fb"/><rect x="457" y="176" width="11" height="11" rx="2.5" fill="#4a7ff0"/></g>
  <g class="fade" style="animation-delay:0.420s"><rect x="471" y="92" width="11" height="11" rx="2.5" fill="#c6d6fb"/><rect x="471" y="106" width="11" height="11" rx="2.5" fill="#c6d6fb"/><rect x="471" y="120" width="11" height="11" rx="2.5" fill="#8badf4"/><rect x="471" y="134" width="11" height="11" rx="2.5" fill="#8badf4"/><rect x="471" y="148" width="11" height="11" rx="2.5" fill="#8badf4"/><rect x="471" y="162" width="11" height="11" rx="2.5" fill="#c6d6fb"/><rect x="471" y="176" width="11" height="11" rx="2.5" fill="#e9edf3"/></g>
  <g class="fade" style="animation-delay:0.434s"><rect x="485" y="92" width="11" height="11" rx="2.5" fill="#e9edf3"/><rect x="485" y="106" width="11" height="11" rx="2.5" fill="#8badf4"/><rect x="485" y="120" width="11" height="11" rx="2.5" fill="#8badf4"/><rect x="485" y="134" width="11" height="11" rx="2.5" fill="#4a7ff0"/><rect x="485" y="148" width="11" height="11" rx="2.5" fill="#c6d6fb"/><rect x="485" y="162" width="11" height="11" rx="2.5" fill="#8badf4"/><rect x="485" y="176" width="11" height="11" rx="2.5" fill="#c6d6fb"/></g>
  <g class="fade" style="animation-delay:0.448s"><rect x="499" y="92" width="11" height="11" rx="2.5" fill="#e9edf3"/><rect x="499" y="106" width="11" height="11" rx="2.5" fill="#c6d6fb"/><rect x="499" y="120" width="11" height="11" rx="2.5" fill="#4a7ff0"/><rect x="499" y="134" width="11" height="11" rx="2.5" fill="#8badf4"/><rect x="499" y="148" width="11" height="11" rx="2.5" fill="#4a7ff0"/><rect x="499" y="162" width="11" height="11" rx="2.5" fill="#8badf4"/><rect x="499" y="176" width="11" height="11" rx="2.5" fill="#e9edf3"/></g>
  <g class="fade" style="animation-delay:0.462s"><rect x="513" y="92" width="11" height="11" rx="2.5" fill="#e9edf3"/><rect x="513" y="106" width="11" height="11" rx="2.5" fill="#4a7ff0"/><rect x="513" y="120" width="11" height="11" rx="2.5" fill="#4a7ff0"/><rect x="513" y="134" width="11" height="11" rx="2.5" fill="#1d4ed8"/><rect x="513" y="148" width="11" height="11" rx="2.5" fill="#8badf4"/><rect x="513" y="162" width="11" height="11" rx="2.5" fill="#c6d6fb"/><rect x="513" y="176" width="11" height="11" rx="2.5" fill="#e9edf3"/></g>
  <g class="fade" style="animation-delay:0.476s"><rect x="527" y="92" width="11" height="11" rx="2.5" fill="#e9edf3"/><rect x="527" y="106" width="11" height="11" rx="2.5" fill="#c6d6fb"/><rect x="527" y="120" width="11" height="11" rx="2.5" fill="#8badf4"/><rect x="527" y="134" width="11" height="11" rx="2.5" fill="#c6d6fb"/><rect x="527" y="148" width="11" height="11" rx="2.5" fill="#c6d6fb"/><rect x="527" y="162" width="11" height="11" rx="2.5" fill="#8badf4"/><rect x="527" y="176" width="11" height="11" rx="2.5" fill="#e9edf3"/></g>
  <g class="fade" style="animation-delay:0.490s"><rect x="541" y="92" width="11" height="11" rx="2.5" fill="#e9edf3"/><rect x="541" y="106" width="11" height="11" rx="2.5" fill="#c6d6fb"/><rect x="541" y="120" width="11" height="11" rx="2.5" fill="#8badf4"/><rect x="541" y="134" width="11" height="11" rx="2.5" fill="#c6d6fb"/><rect x="541" y="148" width="11" height="11" rx="2.5" fill="#c6d6fb"/><rect x="541" y="162" width="11" height="11" rx="2.5" fill="#c6d6fb"/><rect x="541" y="176" width="11" height="11" rx="2.5" fill="#8badf4"/></g>
  <g class="fade" style="animation-delay:0.504s"><rect x="555" y="92" width="11" height="11" rx="2.5" fill="#e9edf3"/><rect x="555" y="106" width="11" height="11" rx="2.5" fill="#8badf4"/><rect x="555" y="120" width="11" height="11" rx="2.5" fill="#4a7ff0"/><rect x="555" y="134" width="11" height="11" rx="2.5" fill="#c6d6fb"/><rect x="555" y="148" width="11" height="11" rx="2.5" fill="#8badf4"/><rect x="555" y="162" width="11" height="11" rx="2.5" fill="#4a7ff0"/><rect x="555" y="176" width="11" height="11" rx="2.5" fill="#c6d6fb"/></g>
  <g class="fade" style="animation-delay:0.518s"><rect x="569" y="92" width="11" height="11" rx="2.5" fill="#c6d6fb"/><rect x="569" y="106" width="11" height="11" rx="2.5" fill="#8badf4"/><rect x="569" y="120" width="11" height="11" rx="2.5" fill="#8badf4"/><rect x="569" y="134" width="11" height="11" rx="2.5" fill="#8badf4"/><rect x="569" y="148" width="11" height="11" rx="2.5" fill="#c6d6fb"/><rect x="569" y="162" width="11" height="11" rx="2.5" fill="#8badf4"/><rect x="569" y="176" width="11" height="11" rx="2.5" fill="#c6d6fb"/></g>
  <g class="fade" style="animation-delay:0.532s"><rect x="583" y="92" width="11" height="11" rx="2.5" fill="#c6d6fb"/><rect x="583" y="106" width="11" height="11" rx="2.5" fill="#8badf4"/><rect x="583" y="120" width="11" height="11" rx="2.5" fill="#4a7ff0"/><rect x="583" y="134" width="11" height="11" rx="2.5" fill="#1d4ed8"/><rect x="583" y="148" width="11" height="11" rx="2.5" fill="#4a7ff0"/><rect x="583" y="162" width="11" height="11" rx="2.5" fill="#8badf4"/><rect x="583" y="176" width="11" height="11" rx="2.5" fill="#c6d6fb"/></g>
  <g class="fade" style="animation-delay:0.546s"><rect x="597" y="92" width="11" height="11" rx="2.5" fill="#e9edf3"/><rect x="597" y="106" width="11" height="11" rx="2.5" fill="#c6d6fb"/><rect x="597" y="120" width="11" height="11" rx="2.5" fill="#c6d6fb"/><rect x="597" y="134" width="11" height="11" rx="2.5" fill="#c6d6fb"/><rect x="597" y="148" width="11" height="11" rx="2.5" fill="#8badf4"/><rect x="597" y="162" width="11" height="11" rx="2.5" fill="#c6d6fb"/><rect x="597" y="176" width="11" height="11" rx="2.5" fill="#c6d6fb"/></g>
  <g class="fade" style="animation-delay:0.560s"><rect x="611" y="92" width="11" height="11" rx="2.5" fill="#c6d6fb"/><rect x="611" y="106" width="11" height="11" rx="2.5" fill="#4a7ff0"/><rect x="611" y="120" width="11" height="11" rx="2.5" fill="#8badf4"/><rect x="611" y="134" width="11" height="11" rx="2.5" fill="#8badf4"/><rect x="611" y="148" width="11" height="11" rx="2.5" fill="#c6d6fb"/><rect x="611" y="162" width="11" height="11" rx="2.5" fill="#c6d6fb"/><rect x="611" y="176" width="11" height="11" rx="2.5" fill="#e9edf3"/></g>
  <g class="fade" style="animation-delay:0.574s"><rect x="625" y="92" width="11" height="11" rx="2.5" fill="#e9edf3"/><rect x="625" y="106" width="11" height="11" rx="2.5" fill="#8badf4"/><rect x="625" y="120" width="11" height="11" rx="2.5" fill="#8badf4"/><rect x="625" y="134" width="11" height="11" rx="2.5" fill="#c6d6fb"/><rect x="625" y="148" width="11" height="11" rx="2.5" fill="#4a7ff0"/><rect x="625" y="162" width="11" height="11" rx="2.5" fill="#4a7ff0"/><rect x="625" y="176" width="11" height="11" rx="2.5" fill="#c6d6fb"/></g>
  <g class="fade" style="animation-delay:0.588s"><rect x="639" y="92" width="11" height="11" rx="2.5" fill="#e9edf3"/><rect x="639" y="106" width="11" height="11" rx="2.5" fill="#8badf4"/><rect x="639" y="120" width="11" height="11" rx="2.5" fill="#8badf4"/><rect x="639" y="134" width="11" height="11" rx="2.5" fill="#e9edf3"/><rect x="639" y="148" width="11" height="11" rx="2.5" fill="#e9edf3"/><rect x="639" y="162" width="11" height="11" rx="2.5" fill="#e9edf3"/><rect x="639" y="176" width="11" height="11" rx="2.5" fill="#e9edf3"/></g>
  <g class="fade" style="animation-delay:0.602s"><rect x="653" y="92" width="11" height="11" rx="2.5" fill="#e9edf3"/><rect x="653" y="106" width="11" height="11" rx="2.5" fill="#e9edf3"/><rect x="653" y="120" width="11" height="11" rx="2.5" fill="#e9edf3"/><rect x="653" y="134" width="11" height="11" rx="2.5" fill="#e9edf3"/><rect x="653" y="148" width="11" height="11" rx="2.5" fill="#c6d6fb"/><rect x="653" y="162" width="11" height="11" rx="2.5" fill="#e9edf3"/><rect x="653" y="176" width="11" height="11" rx="2.5" fill="#e9edf3"/></g>
  <g class="fade" style="animation-delay:0.616s"><rect x="667" y="92" width="11" height="11" rx="2.5" fill="#e9edf3"/><rect x="667" y="106" width="11" height="11" rx="2.5" fill="#e9edf3"/><rect x="667" y="120" width="11" height="11" rx="2.5" fill="#4a7ff0"/><rect x="667" y="134" width="11" height="11" rx="2.5" fill="#8badf4"/><rect x="667" y="148" width="11" height="11" rx="2.5" fill="#e9edf3"/><rect x="667" y="162" width="11" height="11" rx="2.5" fill="#c6d6fb"/><rect x="667" y="176" width="11" height="11" rx="2.5" fill="#e9edf3"/></g>
  <g class="fade" style="animation-delay:0.630s"><rect x="681" y="92" width="11" height="11" rx="2.5" fill="#e9edf3"/><rect x="681" y="106" width="11" height="11" rx="2.5" fill="#e9edf3"/><rect x="681" y="120" width="11" height="11" rx="2.5" fill="#c6d6fb"/><rect x="681" y="134" width="11" height="11" rx="2.5" fill="#4a7ff0"/><rect x="681" y="148" width="11" height="11" rx="2.5" fill="#8badf4"/><rect x="681" y="162" width="11" height="11" rx="2.5" fill="#8badf4"/><rect x="681" y="176" width="11" height="11" rx="2.5" fill="#e9edf3"/></g>
  <g class="fade" style="animation-delay:0.644s"><rect x="695" y="92" width="11" height="11" rx="2.5" fill="#e9edf3"/><rect x="695" y="106" width="11" height="11" rx="2.5" fill="#1d4ed8"/><rect x="695" y="120" width="11" height="11" rx="2.5" fill="#8badf4"/><rect x="695" y="134" width="11" height="11" rx="2.5" fill="#c6d6fb"/><rect x="695" y="148" width="11" height="11" rx="2.5" fill="#c6d6fb"/><rect x="695" y="162" width="11" height="11" rx="2.5" fill="#4a7ff0"/><rect x="695" y="176" width="11" height="11" rx="2.5" fill="#e9edf3"/></g>
  <g class="fade" style="animation-delay:0.658s"><rect x="709" y="92" width="11" height="11" rx="2.5" fill="#e9edf3"/><rect x="709" y="106" width="11" height="11" rx="2.5" fill="#c6d6fb"/><rect x="709" y="120" width="11" height="11" rx="2.5" fill="#8badf4"/><rect x="709" y="134" width="11" height="11" rx="2.5" fill="#c6d6fb"/><rect x="709" y="148" width="11" height="11" rx="2.5" fill="#c6d6fb"/><rect x="709" y="162" width="11" height="11" rx="2.5" fill="#8badf4"/><rect x="709" y="176" width="11" height="11" rx="2.5" fill="#e9edf3"/></g>
  <g class="fade" style="animation-delay:0.672s"><rect x="723" y="92" width="11" height="11" rx="2.5" fill="#e9edf3"/><rect x="723" y="106" width="11" height="11" rx="2.5" fill="#e9edf3"/><rect x="723" y="120" width="11" height="11" rx="2.5" fill="#8badf4"/><rect x="723" y="134" width="11" height="11" rx="2.5" fill="#e9edf3"/><rect x="723" y="148" width="11" height="11" rx="2.5" fill="#e9edf3"/><rect x="723" y="162" width="11" height="11" rx="2.5" fill="#e9edf3"/><rect x="723" y="176" width="11" height="11" rx="2.5" fill="#4a7ff0"/></g>
  <g class="fade" style="animation-delay:0.686s"><rect x="737" y="92" width="11" height="11" rx="2.5" fill="#e9edf3"/><rect x="737" y="106" width="11" height="11" rx="2.5" fill="#c6d6fb"/><rect x="737" y="120" width="11" height="11" rx="2.5" fill="#c6d6fb"/><rect x="737" y="134" width="11" height="11" rx="2.5" fill="#e9edf3"/><rect x="737" y="148" width="11" height="11" rx="2.5" fill="#c6d6fb"/><rect x="737" y="162" width="11" height="11" rx="2.5" fill="#c6d6fb"/><rect x="737" y="176" width="11" height="11" rx="2.5" fill="#c6d6fb"/></g>
  <g class="fade" style="animation-delay:0.700s"><rect x="751" y="92" width="11" height="11" rx="2.5" fill="#e9edf3"/><rect x="751" y="106" width="11" height="11" rx="2.5" fill="#c6d6fb"/><rect x="751" y="120" width="11" height="11" rx="2.5" fill="#c6d6fb"/><rect x="751" y="134" width="11" height="11" rx="2.5" fill="#8badf4"/><rect x="751" y="148" width="11" height="11" rx="2.5" fill="#c6d6fb"/><rect x="751" y="162" width="11" height="11" rx="2.5" fill="#4a7ff0"/><rect x="751" y="176" width="11" height="11" rx="2.5" fill="#e9edf3"/></g>
  <g class="fade" style="animation-delay:0.714s"><rect x="765" y="92" width="11" height="11" rx="2.5" fill="#e9edf3"/><rect x="765" y="106" width="11" height="11" rx="2.5" fill="#c6d6fb"/><rect x="765" y="120" width="11" height="11" rx="2.5" fill="#c6d6fb"/><rect x="765" y="134" width="11" height="11" rx="2.5" fill="#8badf4"/><rect x="765" y="148" width="11" height="11" rx="2.5" fill="#8badf4"/><rect x="765" y="162" width="11" height="11" rx="2.5" fill="#c6d6fb"/><rect x="765" y="176" width="11" height="11" rx="2.5" fill="#c6d6fb"/></g>
  <g class="fade" style="animation-delay:0.728s"><rect x="779" y="92" width="11" height="11" rx="2.5" fill="#e9edf3"/><rect x="779" y="106" width="11" height="11" rx="2.5" fill="#e9edf3"/><rect x="779" y="120" width="11" height="11" rx="2.5" fill="#e9edf3"/></g>
  <text class="mono" x="51" y="211" font-size="10.5" fill="#94a3b8">Updated daily by a GitHub Action</text>
  <text class="mono" x="715" y="211" font-size="10.5" text-anchor="end" fill="#94a3b8">Less</text>
  <rect x="723" y="202" width="11" height="11" rx="2.5" fill="#e9edf3"/><rect x="737" y="202" width="11" height="11" rx="2.5" fill="#c6d6fb"/><rect x="751" y="202" width="11" height="11" rx="2.5" fill="#8badf4"/><rect x="765" y="202" width="11" height="11" rx="2.5" fill="#4a7ff0"/><rect x="779" y="202" width="11" height="11" rx="2.5" fill="#1d4ed8"/>
  <text class="mono" x="798" y="211" font-size="10.5" fill="#94a3b8">More</text>
</svg>
